<svg version="1.1" xmlns="http://www.w3.org/2000/svg" width="1024" height="1024" viewBox="0 0 1024 1024">
    <path style="fill: #2F80ED" d="M745.986 805.896c0 18.033 6.55 33.423 19.594 46.167 13.049 12.757 28.809 19.143 47.283 19.143 18.443 0 34.209-6.382 47.252-19.143 13.061-12.746 19.594-28.135 19.594-46.167s-6.527-33.423-19.594-46.179c-13.049-12.746-28.809-19.129-47.252-19.129-18.471 0-34.231 6.382-47.283 19.129-13.049 12.757-19.594 28.147-19.594 46.179zM936.634 227.79c-6.617-6.464-14.45-9.694-23.504-9.694h-627.299c-0.354-2.379-1.139-6.713-2.352-13.004-1.218-6.295-2.172-11.309-2.868-15.059-0.702-3.732-2-8.24-3.919-13.51-1.914-5.276-4.181-9.446-6.787-12.499-2.61-3.070-6.090-5.697-10.445-7.919-4.35-2.206-9.315-3.311-14.884-3.311h-133.709c-9.060 0-16.893 3.238-23.511 9.693-6.617 6.46-9.929 14.119-9.929 22.961s3.307 16.495 9.929 22.961c6.618 6.464 14.454 9.693 23.511 9.693h106.542l92.445 419.929c-0.69 1.358-4.26 7.818-10.703 19.386-6.441 11.571-11.579 21.686-15.406 30.359-3.829 8.683-5.742 15.395-5.742 20.155 0 8.84 3.307 16.496 9.922 22.972 6.626 6.447 14.454 9.688 23.511 9.688h534.831c9.053 0 16.888-3.239 23.5-9.688 6.623-6.471 9.929-14.127 9.929-22.972s-3.306-16.5-9.929-22.961c-6.612-6.46-14.45-9.702-23.5-9.702h-480.521c8.357-16.328 12.54-27.204 12.54-32.649 0-3.41-0.433-7.156-1.308-11.231s-1.914-8.586-3.134-13.526c-1.218-4.919-2-8.576-2.348-10.961l545.314-62.248c8.694-1.027 15.84-4.672 21.412-10.973 5.573-6.287 8.35-13.513 8.35-21.681v-261.245c-0.006-8.84-3.306-16.495-9.929-22.972zM277.99 805.896c0 18.033 6.527 33.423 19.584 46.167 13.062 12.757 28.813 19.143 47.275 19.143 18.449 0 34.209-6.382 47.264-19.143 13.061-12.746 19.594-28.135 19.594-46.167s-6.527-33.423-19.594-46.179c-13.059-12.746-28.813-19.129-47.264-19.129-18.46 0-34.22 6.382-47.275 19.129-13.053 12.757-19.584 28.147-19.584 46.179z"></path>
</svg>
