<svg version="1.1" xmlns="http://www.w3.org/2000/svg" width="1024" height="1024" viewBox="0 0 1024 1024">
    <path style="fill: #2F80ED" d="M936.96 719.36c17.92-30.72 30.72-66.56 30.72-107.52 0-115.2-92.16-207.36-207.36-204.8-25.6-2.56-48.64 2.56-71.68 12.8 17.92 61.44 20.48 122.88 2.56 184.32-17.92 53.76-48.64 102.4-89.6 140.8 38.4 48.64 97.28 74.24 158.72 74.24 48.64 0 92.16-15.36 125.44-43.52l71.68 28.16-20.48-84.48zM381.44 204.8c-168.96 0-304.64 135.68-304.64 304.64 0 58.88 17.92 112.64 46.080 158.72l-28.16 128 107.52-40.96c51.2 35.84 112.64 58.88 179.2 58.88 168.96 0 304.64-135.68 304.64-304.64s-135.68-304.64-304.64-304.64zM376.32 678.4c-17.92 0-33.28-15.36-33.28-33.28s15.36-33.28 33.28-33.28c17.92 0 33.28 15.36 33.28 33.28s-15.36 33.28-33.28 33.28zM488.96 455.68c-12.8 43.52-64 69.12-74.24 84.48-7.68 10.24-12.8 23.040-12.8 38.4 0 7.68 0 12.8-2.56 15.36s-25.6 2.56-25.6 2.56c-7.68 0-17.92 0-25.6-2.56-2.56-23.040 0-46.080 10.24-66.56 12.8-25.6 56.32-40.96 71.68-81.92 12.8-38.4-28.16-53.76-43.52-53.76-12.8 0-38.4-5.12-58.88 51.2h-58.88c5.12-30.72 17.92-58.88 40.96-79.36 23.040-17.92 48.64-25.6 76.8-23.040 28.16 0 53.76 10.24 76.8 28.16 25.6 23.040 35.84 56.32 25.6 87.040z"></path>
</svg>
