<?xml version="1.0" encoding="utf-8"?>
<!-- Generator: Adobe Illustrator 23.0.1, SVG Export Plug-In . SVG Version: 6.00 Build 0)  -->
<svg version="1.1" id="Layer_1" xmlns="http://www.w3.org/2000/svg" xmlns:xlink="http://www.w3.org/1999/xlink" x="0px" y="0px"
	 viewBox="0 0 2049.8 817.9" style="enable-background:new 0 0 2049.8 817.9;" xml:space="preserve">
<style type="text/css">
	.st0{fill:#000;}
	.st1{display:none;}
</style>
<g id="logo">
	<g>
		<path class="st0" d="M415.4,410.8c0,35.2,0,186.2,0,186.2h-98.3c0-75.1,0-150.1,0-186c0-73-35.4-96.1-84.4-96.1
			c-32.8,0-82.3,18.4-82.6,94c-0.2,45.1,0,188.6,0,188.6H49.8v-371h98.8v41.8c0.7-0.7,38.1-52.4,97.3-52.4
			C394.6,215.7,415.4,325.5,415.4,410.8z"/>
		<path class="st0" d="M793.4,520.9c-40.2,46.5-88.8,81.8-158.6,81.8c-99.4,0-181.8-74-192.4-172.7
			c-12-110.6,77.5-214.9,193.1-214.9C756,215,830,333.4,811,446.9H541.1c14.8,38.1,51.4,63.4,93.7,63.4c29.6,0,57.1-13.4,79.6-38.1
			L793.4,520.9z M541.1,377.1h179.7c0-38.1-43.7-69.8-85.3-69.8C584.1,307.3,541.1,341.2,541.1,377.1z"/>
		<path class="st0" d="M962.6,311.9c0,56.6,0,79.2,0,114.9c0.1,81.5,13.7,72.1,66.5,72.2v98c-141.4,9.6-168.5-45.8-168.5-133.2
			c0-39.5,0-84.6,0-152.9H807v-84.7h53.6V97.9h100.1v128.3h80.8v85.7L962.6,311.9L962.6,311.9z"/>
		<path class="st0" d="M1068.3,226.7h106.3v370.9h-106.3V226.7z"/>
		<path class="st0" d="M2000,408.9c0,26.1-5.6,51.4-15.5,75.4c-9.9,23.3-24,43.7-41.6,61.3c-17.6,18.3-38.1,31.7-61.3,41.6
			c-24,10.6-49.3,15.5-75.4,15.5s-51.4-4.9-75.4-14.8c-23.3-9.9-43.7-24-62-41.6c-17.6-17.6-31.7-38.8-41.6-61.3
			c-9.9-24-14.8-49.3-14.8-75.4c-0.7-26.1,4.9-51.4,14.8-75.4c9.9-23.3,24-44.4,41.6-62s38.1-31.7,61.3-41.6
			c24-9.9,49.3-15.5,75.4-15.5s51.4,4.9,75.4,15.5c23.3,9.2,43.7,23.3,62,40.9c17.6,18.3,31.7,38.8,41.6,62
			C1994.4,357.5,1999.3,382.8,2000,408.9z M1903.5,408.9c0-54.3-43.7-97.3-98-97.3c-53.6,0-97.2,43.7-97.2,97.3
			c0,54.3,43.7,98,98,98C1859.8,506.9,1903.5,462.5,1903.5,408.9z"/>
		<polygon class="st0" points="2049.8,165.8 2049.8,289.3 1926.3,165.8 		"/>
		<path class="st0" d="M1585.7,227.8h-96.6v41.4c-8.4-20.5-41.4-49.7-89.7-53.1c-122-8.6-189.7,81.4-196.8,183.5l0,0
			c-0.1,1.4-0.1,2.8-0.2,4.2c-0.1,2-0.2,4-0.3,6.1c0,0.1,0,0.3,0,0.4s0,0.3,0,0.4c0.1,3.4,0.2,6.8,0.4,10.1c0,0.4,0,0.8,0,1.2h0.1
			c7.6,101.7,92.6,187.1,196.7,182.5c45.2-2,69.8-19.3,89.8-51.8c0,0,0.1,58.2-0.2,62.2c0,53.6-43.7,98-97.3,98
			c-54.3,0-94.7-43.6-94.7-97.9c0,0-94.8-0.2-94.8,0c0,26.1,0.7,52.1,10.5,76c9.9,22.6,24,43.7,41.6,61.3
			c18.3,17.6,38.8,31.7,62,41.6c24,9.9,49.3,14.8,75.4,14.8s51.4-4.9,75.4-15.5c23.3-9.9,43.7-23.3,61.3-41.6
			c17.6-17.6,31.7-38.1,41.6-61.3c9.9-24,15.5-49.3,15.5-75.4C1585.4,594.8,1585.7,227.8,1585.7,227.8z M1390.2,509.5
			c-50,0-91.4-38.1-96.7-87.3h0.1c-0.2-1.5-0.3-3-0.4-4.5c-0.1-1.4-0.2-2.9-0.2-4.3c0-0.7-0.1-1.4-0.1-2.1c0-0.1,0-0.2,0-0.4
			c0-0.1,0-0.3,0-0.4s0-0.3,0-0.4s0-0.2,0-0.3c0-3.4,0.2-6.7,0.5-10h-0.1c4.8-49.7,46.4-88.4,96.8-88.4c55.8,0,97.8,47.7,98.6,98.6
			c0,0,0,0.1,0,0.2c0,1.8-0.1,3.6-0.3,5.4c0,0.3,0,0.5-0.1,0.8c-0.2,2-0.4,4-0.7,5.9h0.1C1481.6,468.7,1441.9,509.5,1390.2,509.5z"
			/>
	</g>
</g>
<g id="lines_1_" class="st1">
</g>
<g id="lines_2_" class="st1">
</g>
<g id="lines" class="st1">
</g>
<g id="Ebene_5" class="st1">
</g>
</svg>
