<svg version="1.1" xmlns="http://www.w3.org/2000/svg" width="1024" height="1024" viewBox="0 0 1024 1024">
    <path style="fill: #C8C8C8" d="M512 128.001c212.078 0 383.999 171.923 383.999 383.999 0 101.843-40.457 199.515-112.47 271.529s-169.687 112.47-271.529 112.47c-212.078 0-383.999-171.923-383.999-383.999s171.923-383.999 383.999-383.999v0zM512 64c-247.424 0-448 200.576-448 448s200.576 448 448 448c247.424 0 448-200.576 448-448s-200.576-448-448-448v0zM543.999 319.999h-64.001v159.999h-159.999v64.001h159.999v159.999h64.001v-159.999h159.999v-64.001h-159.999v-159.999z"></path>
</svg>
