<svg version="1.1" xmlns="http://www.w3.org/2000/svg" width="1024" height="1024" viewBox="0 0 1024 1024">
    <path style="fill: #C8C8C8" d="M0.512 556.544c0 0 131.84 53.504 156.928 66.816 0 0-65.536 152.576-51.712 221.696s82.432 178.688 225.792 157.696 154.112-158.72 163.84-199.168c0 0 269.568 167.68 332.032 220.416h-826.88v-467.456zM696.32 0c0 0-519.168 467.456-551.424 797.696-9.216 207.36 316.416 276.48 325.632-86.016 0 0-86.272-49.92-74.496-140.032s96.256-110.080 118.272-111.104l76.8-157.184c0 0-51.712-55.808-16.896-113.664s101.888-41.984 112.64-38.4l115.456-151.296h-105.984zM381.184 204.8c0 86.669-70.259 156.928-156.928 156.928s-156.928-70.259-156.928-156.928c0-86.669 70.259-156.928 156.928-156.928s156.928 70.259 156.928 156.928zM713.728 236.288c0 33.508-27.164 60.672-60.672 60.672s-60.672-27.164-60.672-60.672c0-33.508 27.164-60.672 60.672-60.672s60.672 27.164 60.672 60.672zM913.408 484.352c0 30.539-24.757 55.296-55.296 55.296s-55.296-24.757-55.296-55.296c0-30.539 24.757-55.296 55.296-55.296s55.296 24.757 55.296 55.296zM627.2 589.568c0 55.281-44.815 100.096-100.096 100.096s-100.096-44.815-100.096-100.096c0-55.281 44.815-100.096 100.096-100.096s100.096 44.815 100.096 100.096zM821.248 767.232c0 18.239-14.785 33.024-33.024 33.024s-33.024-14.785-33.024-33.024c0-18.239 14.785-33.024 33.024-33.024s33.024 14.785 33.024 33.024z"></path>
</svg>
