<svg version="1.1" xmlns="http://www.w3.org/2000/svg" width="1024" height="1024" viewBox="0 0 1024 1024">
    <path style="fill: #424242" d="M512.002 221.092c159.185 0 289.427 130.91 289.427 290.91 0 160.002-130.245 290.908-289.427 290.908-159.185 0-289.426-130.908-289.426-290.91s130.244-290.908 289.426-290.908v0zM512.002 192c-175.104 0-318.368 144-318.368 320s143.265 320 318.368 320c175.104 0 318.368-143.998 318.368-319.998s-143.265-320.003-318.368-320.003v0zM225.469 224.002c5.785-5.816 5.785-14.545 0-20.365-5.788-5.819-14.472-5.816-20.262 0-169.315 170.184-169.315 446.546 0 616.727 2.895 2.91 5.787 4.365 10.129 4.365s7.235-1.455 10.128-4.365c5.788-5.815 5.788-14.545 0-20.365-157.735-158.545-157.735-417.456 0.005-575.999zM818.795 203.635c-5.787-5.816-14.471-5.816-20.261 0s-5.787 14.545 0 20.365c157.735 158.545 157.735 417.456 0 576.002-5.787 5.817-5.787 14.545 0 20.365 2.895 2.91 5.787 4.365 10.129 4.365s7.235-1.455 10.129-4.365c169.315-170.185 169.315-446.547 0.003-616.73zM555.415 439.275v203.635c0 8.727 5.788 14.545 14.472 14.545h43.415l0.002 29.093h-173.655v-29.093h43.415c8.685 0 14.471-5.815 14.471-14.545v-160.001c0-8.726-5.787-14.545-14.471-14.545h-28.945v-29.093h101.298zM439.646 410.185c-8.685 0-14.471 5.816-14.471 14.545v58.182c0 8.726 5.787 14.545 14.471 14.545h28.945v130.909h-43.415c-8.685 0-14.471 5.817-14.471 14.545v58.183c0 8.725 5.787 14.545 14.471 14.545h202.598c8.684 0 14.472-5.817 14.472-14.545v-58.183c0-8.725-5.79-14.545-14.474-14.545h-43.415v-203.635c0-8.726-5.788-14.545-14.472-14.545h-130.244zM512.001 293.819c15.919 0 28.945 13.091 28.945 29.093s-13.025 29.092-28.945 29.092c-15.918 0-28.945-13.091-28.945-29.092s13.025-29.093 28.945-29.093v0zM512.001 264.729c-31.835 0-57.885 26.183-57.885 58.182-0.003 31.999 26.045 58.182 57.885 58.182 31.835 0 57.885-26.183 57.885-58.182s-26.048-58.182-57.885-58.182v0z"></path>
</svg>
