<svg version="1.1" xmlns="http://www.w3.org/2000/svg" width="1024" height="1024" viewBox="0 0 1024 1024">
    <path style="fill: #C8C8C8" d="M512 128.047c212.051 0 383.953 171.901 383.953 383.953s-171.901 383.953-383.953 383.953c-212.051 0-383.953-171.901-383.953-383.953v0c0-212.051 171.901-383.953 383.953-383.953v0zM512 64c-247.424 0-448 200.576-448 448s200.576 448 448 448c247.424 0 448-200.576 448-448v0c0-0.099 0-0.216 0-0.331 0-247.24-200.428-447.669-447.669-447.669-0.117 0-0.233 0-0.35 0h0.019zM480.143 480.143h-160.284v63.716h384.284v-63.716h-224z"></path>
</svg>
